<svg width="5821" height="2696" viewBox="0 0 5821 2696" fill="none" xmlns="http://www.w3.org/2000/svg">
<mask id="mask0_2168_92" style="mask-type:luminance" maskUnits="userSpaceOnUse" x="0" y="0" width="5821" height="2696">
<path d="M5820.21 0H0.30249V2695.13H5820.21V0Z" fill="white"/>
</mask>
<g mask="url(#mask0_2168_92)">
<path d="M2121.23 55.2956C1708.2 456.212 1804.17 942.206 2050.78 1294.97C2050.78 1294.97 1963.96 1227.13 1746.61 1222.52C1533.26 1217.99 1358.32 1259.26 1358.32 1259.26C1465.95 1131.34 1480.75 845.198 1480.75 845.198C1419.8 845.198 1074.09 763.256 1074.09 763.256C1074.09 920 1042.04 1089.89 1165.78 1237.06H433.647C894.523 902.143 689.406 183.707 409.357 19.1254L1074.09 112.943V439.928C1135.04 439.928 1493.29 521.435 1493.29 521.435C1499.21 384.197 1469 64.5261 1457.59 3.22175C1454.02 -16.11 2121.23 55.2085 2121.23 55.2085V55.2956Z" fill="white"/>
<path d="M1949.94 647.178C1949.94 281.442 2209.44 16.7188 2578.66 16.7188C2947.88 16.7188 3207.38 281.442 3207.38 647.178C3207.38 1012.91 2939.17 1295.05 2578.66 1295.05C2218.15 1295.05 1949.94 1023.36 1949.94 647.178ZM2859.06 647.178C2859.06 466.052 2742.37 340.656 2578.66 340.656C2414.95 340.656 2298.26 467.793 2298.26 647.178C2298.26 838.754 2423.66 971.116 2578.66 971.116C2733.66 971.116 2859.06 838.754 2859.06 647.178Z" fill="white"/>
<path d="M4154.54 469.536C4154.54 736.001 3961.22 913.644 3656.44 913.644H3595.49C3595.49 1028.59 3606.11 1472.52 3606.11 1585.73C3606.11 1585.73 3486.38 1467.56 3353.14 1374.12C3194.57 1262.92 3073.7 1218.16 3073.7 1218.16C3385.54 1041.83 3417.23 340.657 3003.87 55.3833C3003.87 55.3833 3524.08 55.1221 3656.44 55.1221C3957.74 55.1221 4154.54 227.54 4154.54 469.623V469.536ZM3816.67 469.536C3816.67 394.647 3755.71 340.657 3656.44 340.657H3595.49V610.605H3639.03C3745.26 610.605 3816.67 554.874 3816.67 469.536Z" fill="white"/>
<path d="M4569.04 351.107V506.632H4952.2V788.249H4569.04V960.667H5000.96L5258.63 1259.35H3986.13C4271.06 698.469 4400.63 266.291 3969.24 55.3833C3969.24 55.3833 4905.17 55.1221 5157.71 55.1221L5000.96 351.194H4569.04V351.107Z" fill="white"/>
<path d="M0.304365 2447.82V1875.26C95.1345 2098.89 395.125 2263.12 522.697 2284.19C615.438 2299.61 663.767 2249.36 663.767 2212.79C663.767 2167.51 635.901 2139.64 440.842 2066.49C261.457 1993.35 129.096 1887.11 129.096 1702.5C129.096 1462.16 311.964 1312.38 580.17 1312.38C743.881 1312.38 1204.45 1304.89 1360.32 1308.9C1360.32 1308.9 1219.95 1347.73 1105.09 1508.22C1041.78 1596.7 1000.33 1720 1000.33 1720C892.352 1650.34 762.951 1592.78 635.814 1596.17C516.254 1599.4 491.174 1654.52 491.174 1654.52C491.174 1654.52 457.3 1707.46 638.514 1757.45C670.908 1766.41 702.692 1777.56 733.344 1791.32C970.376 1897.56 1005.03 2023.65 1005.03 2184.92C1005.03 2427 818.682 2580.26 571.375 2580.26C412.89 2580.26 117.079 2478.29 0.217285 2447.82H0.304365Z" fill="white"/>
<path d="M2037.98 2691.03C2011.85 2652.72 1975.11 2576.78 1948.98 2540.21C1872.35 2569.82 1788.76 2587.23 1699.93 2587.23C1339.42 2587.23 1071.22 2315.54 1071.22 1939.36C1071.22 1563.17 1330.71 1308.9 1699.93 1308.9C2069.15 1308.9 2328.65 1573.62 2328.65 1939.36C2328.65 2117 2267.7 2272 2166.68 2385.21L2483.57 2691.03H2037.98ZM1788.84 2258.07L1689.57 2012.42L1934.35 2148.61C1955.25 2103.33 1980.42 1998.66 1980.42 1939.44C1980.42 1758.32 1863.73 1632.92 1700.02 1632.92C1536.31 1632.92 1419.62 1760.06 1419.62 1939.44C1419.62 2131.02 1545.02 2263.38 1700.02 2263.38C1717.44 2263.38 1771.43 2261.64 1788.84 2258.16V2258.07Z" fill="white"/>
<path d="M2436.37 2149.05C2441.59 1831.03 2424.87 1564.56 2142.3 1345.47L2720.25 1527.12C2735.92 1777.91 2751.6 1873.87 2767.27 2098.54C2774.24 2201.29 2833.45 2260.51 2922.28 2260.51C3011.1 2260.51 3070.31 2201.29 3077.28 2098.54C3092.95 1873.87 3087.99 1550.72 3083.03 1295.05C3083.03 1295.05 3248.74 1377.6 3430.3 1521.29C3591.92 1649.12 3707.56 1817.44 3707.56 1817.44L3428.91 1665.32C3430.39 1888.15 3422.72 1926.64 3408.27 2149.05C3390.85 2417.25 3204.5 2584.45 2922.36 2584.45C2640.22 2584.45 2432.1 2417.77 2436.46 2149.05H2436.37Z" fill="white"/>
<path d="M4744.6 2695.12C4763.75 2695.12 4424.32 2547.09 4424.32 2547.09C4257.12 2465.23 4125.28 2401.14 3958.09 2321.03L3904.19 2498.15L3509.98 2547.09C3557 2421.69 3604.02 2296.3 3652.79 2172.64C3604.02 2148.26 3557 2125.62 3509.98 2102.98V1789.49C3590.09 1829.55 3670.2 1871.35 3750.32 1913.14C3823.46 1723.31 3894.87 1535.22 3966.27 1345.38H4272.8L4744.6 2695.03V2695.12ZM4271.05 2177.95C4218.81 2031.66 4166.56 1885.37 4114.31 1739.07L4009.81 2045.59L4271.05 2177.95Z" fill="white"/>
<path d="M4439.73 1345.47H5175.91C5567.77 1345.47 5820.3 1582.33 5820.3 1934.13C5820.3 2317.28 5548.61 2547.18 5168.94 2547.18H4859.11L4439.73 1345.47ZM5158.41 2233.69C5337.79 2233.69 5471.89 2129.19 5471.89 1934.13C5471.89 1770.42 5356.95 1658.96 5165.37 1658.96H4909.97L5106.16 2233.69H5158.41Z" fill="white"/>
</g>
</svg>
