<svg width="3226" height="3226" viewBox="0 0 3226 3226" fill="none" xmlns="http://www.w3.org/2000/svg">
<rect width="3226" height="3226" rx="500" fill="#F1F1F1"/>
<path d="M855.008 874.829C829.341 825.488 848.532 764.682 897.872 739.015L1272.51 544.126C1321.85 518.459 1382.65 537.649 1408.32 586.99L1613.47 981.357L1060.16 1269.2L855.008 874.829Z" fill="#074B72"/>
<circle cx="1077.26" cy="626.325" r="214.629" transform="rotate(-27.484 1077.26 626.325)" fill="#CECECE"/>
<path d="M1921.04 542.131C1953.73 497.133 2016.71 487.152 2061.71 519.839L2403.37 768.026C2448.37 800.713 2458.35 863.69 2425.66 908.688L2164.4 1268.35L1659.78 901.793L1921.04 542.131Z" fill="#0066CC"/>
<circle cx="2194.4" cy="674.513" r="214.629" transform="rotate(35.9948 2194.4 674.513)" fill="#CECECE"/>
<path d="M855.008 2351.46C829.341 2400.8 848.532 2461.61 897.872 2487.28L1272.51 2682.17C1321.85 2707.83 1382.65 2688.64 1408.32 2639.3L1613.47 2244.94L1060.16 1957.1L855.008 2351.46Z" fill="#074B72"/>
<path d="M1267.66 2699.02C1322.37 2593.86 1281.47 2464.27 1176.31 2409.56C1071.15 2354.86 941.556 2395.76 886.852 2500.92C832.147 2606.07 873.048 2735.67 978.206 2790.37C1083.36 2845.08 1212.96 2804.18 1267.66 2699.02Z" fill="#CECECE"/>
<path d="M1921.04 2684.16C1953.73 2729.16 2016.71 2739.14 2061.71 2706.45L2403.37 2458.27C2448.37 2425.58 2458.35 2362.6 2425.66 2317.6L2164.4 1957.94L1659.78 2324.5L1921.04 2684.16Z" fill="#0066CC"/>
<circle cx="214.629" cy="214.629" r="214.629" transform="matrix(0.809071 -0.587711 -0.587711 -0.809071 2146.89 2852.08)" fill="#CECECE"/>
<path d="M2493.66 1301.26C2549.28 1301.26 2594.37 1346.35 2594.37 1401.97L2594.37 1824.26C2594.37 1879.88 2549.28 1924.97 2493.66 1924.97L2049.13 1924.97L2049.13 1301.26L2493.66 1301.26Z" fill="#074B72"/>
<path d="M2678.9 1828.12C2560.36 1828.12 2464.27 1732.03 2464.27 1613.49C2464.27 1494.96 2560.36 1398.86 2678.9 1398.86C2797.44 1398.86 2893.53 1494.96 2893.53 1613.49C2893.53 1732.03 2797.44 1828.12 2678.9 1828.12Z" fill="#CECECE"/>
<path d="M665.519 1301.26C609.901 1301.26 564.814 1346.35 564.814 1401.97L564.814 1824.26C564.814 1879.88 609.901 1924.97 665.519 1924.97L1110.06 1924.97L1110.06 1301.26L665.519 1301.26Z" fill="#0066CC"/>
<circle cx="214.629" cy="214.629" r="214.629" transform="matrix(4.37114e-08 1 1 -4.37114e-08 333 1398.49)" fill="#CECECE"/>
<g filter="url(#filter0_d_28_30)">
<circle cx="1612.53" cy="1613.11" r="750.332" fill="#F1F1F1"/>
</g>
<path d="M1256.95 1289.68C1250.28 1283.28 1239.68 1283.5 1233.28 1290.16C1226.88 1296.83 1227.09 1307.43 1233.76 1313.83L1256.95 1289.68ZM1548.78 1616.3L1560.86 1627.89L1584.04 1603.75L1571.97 1592.15L1548.78 1616.3ZM1233.76 1313.83L1548.78 1616.3L1571.97 1592.15L1256.95 1289.68L1233.76 1313.83Z" fill="#085885"/>
<path d="M1653.48 1673.66L1641.64 1661.83L1617.97 1685.5L1629.81 1697.33L1653.48 1673.66ZM1669.5 1737.02C1676.04 1743.56 1686.63 1743.56 1693.17 1737.02C1699.71 1730.49 1699.71 1719.89 1693.17 1713.35L1669.5 1737.02ZM1629.81 1697.33L1669.5 1737.02L1693.17 1713.35L1653.48 1673.66L1629.81 1697.33Z" fill="#085885"/>
<path d="M1799.68 1497.85C1806.69 1491.83 1807.49 1481.26 1801.46 1474.25C1795.44 1467.24 1784.87 1466.44 1777.86 1472.46L1799.68 1497.85ZM1634.52 1595.65L1621.82 1606.56L1643.64 1631.95L1656.33 1621.04L1634.52 1595.65ZM1777.86 1472.46L1634.52 1595.65L1656.33 1621.04L1799.68 1497.85L1777.86 1472.46Z" fill="#085885"/>
<path d="M1571.43 1693.75L1583.77 1682.44L1561.15 1657.76L1548.81 1669.07L1571.43 1693.75ZM1543.65 1673.8C1536.83 1680.05 1536.37 1690.63 1542.62 1697.45C1548.86 1704.26 1559.45 1704.73 1566.27 1698.48L1543.65 1673.8ZM1548.81 1669.07L1543.65 1673.8L1566.27 1698.48L1571.43 1693.75L1548.81 1669.07Z" fill="#085885"/>
<circle cx="1601.96" cy="1645.81" r="42.2287" stroke="#085885" stroke-width="10.043"/>
<defs>
<filter id="filter0_d_28_30" x="786.201" y="794.782" width="1646.67" height="1646.66" filterUnits="userSpaceOnUse" color-interpolation-filters="sRGB">
<feFlood flood-opacity="0" result="BackgroundImageFix"/>
<feColorMatrix in="SourceAlpha" type="matrix" values="0 0 0 0 0 0 0 0 0 0 0 0 0 0 0 0 0 0 127 0" result="hardAlpha"/>
<feMorphology radius="23" operator="dilate" in="SourceAlpha" result="effect1_dropShadow_28_30"/>
<feOffset dx="-3" dy="5"/>
<feGaussianBlur stdDeviation="25"/>
<feComposite in2="hardAlpha" operator="out"/>
<feColorMatrix type="matrix" values="0 0 0 0 0 0 0 0 0 0 0 0 0 0 0 0 0 0 0.05 0"/>
<feBlend mode="normal" in2="BackgroundImageFix" result="effect1_dropShadow_28_30"/>
<feBlend mode="normal" in="SourceGraphic" in2="effect1_dropShadow_28_30" result="shape"/>
</filter>
</defs>
</svg>
